<svg width="229" height="63" viewBox="0 0 229 63" fill="none" xmlns="http://www.w3.org/2000/svg">
<path d="M11 45.4286L5 51H185V12L179 14.7857C173 17.5714 161 23.1429 149 22.2143C137 21.2857 125 13.8571 113 14.7857C101 15.7143 89 25 77 26.8571C65 28.7143 53 23.1429 41 25.9286C29 28.7143 17 39.8571 11 45.4286Z" fill="url(#paint0_linear_347_166)"/>
<path d="M5 50L10.9667 44.5714C16.9333 39.1429 28.8667 28.2857 40.8 25.5714C52.7333 22.8571 64.6667 28.2857 76.6 26.4762C88.5333 24.6667 100.467 15.619 112.4 14.7143C124.333 13.8095 136.267 21.0476 148.2 21.9524C160.133 22.8571 172.067 17.4286 178.033 14.7143L184 12" stroke="#198754" stroke-width="2" stroke-linecap="round"/>
<path d="M3.5 51C3.5 51.2761 3.72386 51.5 4 51.5C4.27614 51.5 4.5 51.2761 4.5 51H3.5ZM4.35355 0.646446C4.15829 0.451183 3.84171 0.451183 3.64645 0.646446L0.464466 3.82843C0.269204 4.02369 0.269204 4.34027 0.464466 4.53553C0.659728 4.7308 0.976311 4.7308 1.17157 4.53553L4 1.70711L6.82843 4.53553C7.02369 4.7308 7.34027 4.7308 7.53553 4.53553C7.7308 4.34027 7.7308 4.02369 7.53553 3.82843L4.35355 0.646446ZM4.5 51L4.5 1H3.5L3.5 51H4.5Z" fill="#555555"/>
<path d="M4 50.5C3.72386 50.5 3.5 50.7239 3.5 51C3.5 51.2761 3.72386 51.5 4 51.5V50.5ZM194.354 51.3536C194.549 51.1583 194.549 50.8417 194.354 50.6464L191.172 47.4645C190.976 47.2692 190.66 47.2692 190.464 47.4645C190.269 47.6597 190.269 47.9763 190.464 48.1716L193.293 51L190.464 53.8284C190.269 54.0237 190.269 54.3403 190.464 54.5355C190.66 54.7308 190.976 54.7308 191.172 54.5355L194.354 51.3536ZM4 51.5H194V50.5H4V51.5Z" fill="#555555"/>
<path d="M8.13672 61H4.39453V60.457L5.92188 58.9062C6.20573 58.6198 6.44401 58.3646 6.63672 58.1406C6.83203 57.9167 6.98047 57.6966 7.08203 57.4805C7.18359 57.2617 7.23438 57.0221 7.23438 56.7617C7.23438 56.4388 7.13802 56.1927 6.94531 56.0234C6.75521 55.8516 6.50391 55.7656 6.19141 55.7656C5.91797 55.7656 5.67578 55.8125 5.46484 55.9062C5.25391 56 5.03776 56.1328 4.81641 56.3047L4.46875 55.8672C4.61979 55.7396 4.78385 55.6263 4.96094 55.5273C5.14062 55.4284 5.33203 55.3503 5.53516 55.293C5.74089 55.2357 5.95964 55.207 6.19141 55.207C6.54297 55.207 6.84635 55.2682 7.10156 55.3906C7.35677 55.513 7.55339 55.6875 7.69141 55.9141C7.83203 56.1406 7.90234 56.4102 7.90234 56.7227C7.90234 57.0247 7.84245 57.306 7.72266 57.5664C7.60286 57.8242 7.4349 58.0807 7.21875 58.3359C7.0026 58.5885 6.75 58.8568 6.46094 59.1406L5.21875 60.3789V60.4062H8.13672V61ZM14.1094 59.8281C14.1094 60.1016 14.0404 60.332 13.9023 60.5195C13.7669 60.7044 13.5716 60.8438 13.3164 60.9375C13.0638 61.0312 12.7617 61.0781 12.4102 61.0781C12.1107 61.0781 11.8516 61.0547 11.6328 61.0078C11.4141 60.9609 11.2227 60.8945 11.0586 60.8086V60.2109C11.2331 60.2969 11.4414 60.375 11.6836 60.4453C11.9258 60.5156 12.1732 60.5508 12.4258 60.5508C12.7956 60.5508 13.0638 60.4909 13.2305 60.3711C13.3971 60.2513 13.4805 60.0885 13.4805 59.8828C13.4805 59.7656 13.4466 59.6628 13.3789 59.5742C13.3138 59.4831 13.2031 59.3958 13.0469 59.3125C12.8906 59.2266 12.6745 59.1328 12.3984 59.0312C12.125 58.9271 11.888 58.8242 11.6875 58.7227C11.4896 58.6185 11.3359 58.4922 11.2266 58.3438C11.1198 58.1953 11.0664 58.0026 11.0664 57.7656C11.0664 57.4036 11.2122 57.1263 11.5039 56.9336C11.7982 56.7383 12.1836 56.6406 12.6602 56.6406C12.918 56.6406 13.1589 56.6667 13.3828 56.7188C13.6094 56.7682 13.8203 56.8359 14.0156 56.9219L13.7969 57.4414C13.6198 57.3659 13.431 57.3021 13.2305 57.25C13.0299 57.1979 12.8255 57.1719 12.6172 57.1719C12.3177 57.1719 12.0872 57.2214 11.9258 57.3203C11.7669 57.4193 11.6875 57.5547 11.6875 57.7266C11.6875 57.8594 11.724 57.9688 11.7969 58.0547C11.8724 58.1406 11.9922 58.2214 12.1562 58.2969C12.3203 58.3724 12.5365 58.4609 12.8047 58.5625C13.0729 58.6615 13.3047 58.7643 13.5 58.8711C13.6953 58.9753 13.8451 59.1029 13.9492 59.2539C14.056 59.4023 14.1094 59.5938 14.1094 59.8281ZM16.8008 56.6406C17.1654 56.6406 17.4779 56.7214 17.7383 56.8828C17.9987 57.0443 18.1979 57.2708 18.3359 57.5625C18.474 57.8516 18.543 58.1901 18.543 58.5781V58.9805H15.5859C15.5938 59.4831 15.7188 59.8659 15.9609 60.1289C16.2031 60.3919 16.5443 60.5234 16.9844 60.5234C17.2552 60.5234 17.4948 60.4987 17.7031 60.4492C17.9115 60.3997 18.1276 60.3268 18.3516 60.2305V60.8008C18.1354 60.8971 17.9206 60.9674 17.707 61.0117C17.4961 61.056 17.2461 61.0781 16.957 61.0781C16.5456 61.0781 16.1862 60.9948 15.8789 60.8281C15.5742 60.6589 15.3372 60.4115 15.168 60.0859C14.9987 59.7604 14.9141 59.362 14.9141 58.8906C14.9141 58.4297 14.9909 58.0312 15.1445 57.6953C15.3008 57.3568 15.5195 57.0964 15.8008 56.9141C16.0846 56.7318 16.418 56.6406 16.8008 56.6406ZM16.793 57.1719C16.4466 57.1719 16.1706 57.2852 15.9648 57.5117C15.7591 57.7383 15.6367 58.0547 15.5977 58.4609H17.8633C17.8607 58.2057 17.8203 57.9818 17.7422 57.7891C17.6667 57.5938 17.5508 57.4427 17.3945 57.3359C17.2383 57.2266 17.0378 57.1719 16.793 57.1719ZM24.293 56.6406C24.7643 56.6406 25.1198 56.7643 25.3594 57.0117C25.599 57.2565 25.7188 57.651 25.7188 58.1953V61H25.0781V58.2266C25.0781 57.8802 25.0026 57.6211 24.8516 57.4492C24.7031 57.2747 24.4818 57.1875 24.1875 57.1875C23.7734 57.1875 23.4727 57.3073 23.2852 57.5469C23.0977 57.7865 23.0039 58.1393 23.0039 58.6055V61H22.3594V58.2266C22.3594 57.9948 22.3255 57.8021 22.2578 57.6484C22.1927 57.4948 22.0938 57.3802 21.9609 57.3047C21.8307 57.2266 21.6654 57.1875 21.4648 57.1875C21.181 57.1875 20.9531 57.2461 20.7812 57.3633C20.6094 57.4805 20.4844 57.6549 20.4062 57.8867C20.3307 58.1159 20.293 58.3984 20.293 58.7344V61H19.6445V56.7188H20.168L20.2656 57.3242H20.3008C20.3867 57.1758 20.4948 57.0508 20.625 56.9492C20.7552 56.8477 20.901 56.7708 21.0625 56.7188C21.224 56.6667 21.3958 56.6406 21.5781 56.6406C21.9036 56.6406 22.1758 56.7018 22.3945 56.8242C22.6159 56.944 22.776 57.1276 22.875 57.375H22.9102C23.0508 57.1276 23.2435 56.944 23.4883 56.8242C23.7331 56.7018 24.0013 56.6406 24.293 56.6406ZM28.6523 56.6484C29.1628 56.6484 29.5417 56.763 29.7891 56.9922C30.0365 57.2214 30.1602 57.5872 30.1602 58.0898V61H29.6875L29.5625 60.3672H29.5312C29.4115 60.5234 29.2865 60.6549 29.1562 60.7617C29.026 60.8659 28.875 60.9453 28.7031 61C28.5339 61.0521 28.3255 61.0781 28.0781 61.0781C27.8177 61.0781 27.5859 61.0326 27.3828 60.9414C27.1823 60.8503 27.0234 60.7122 26.9062 60.5273C26.7917 60.3424 26.7344 60.1081 26.7344 59.8242C26.7344 59.3971 26.9036 59.069 27.2422 58.8398C27.5807 58.6107 28.0964 58.4857 28.7891 58.4648L29.5273 58.4336V58.1719C29.5273 57.8021 29.4479 57.543 29.2891 57.3945C29.1302 57.2461 28.9062 57.1719 28.6172 57.1719C28.3932 57.1719 28.1797 57.2044 27.9766 57.2695C27.7734 57.3346 27.5807 57.4115 27.3984 57.5L27.1992 57.0078C27.3919 56.9089 27.6133 56.8242 27.8633 56.7539C28.1133 56.6836 28.3763 56.6484 28.6523 56.6484ZM29.5195 58.8906L28.8672 58.918C28.3333 58.9388 27.957 59.026 27.7383 59.1797C27.5195 59.3333 27.4102 59.5508 27.4102 59.832C27.4102 60.0768 27.4844 60.2578 27.6328 60.375C27.7812 60.4922 27.9779 60.5508 28.2227 60.5508C28.6029 60.5508 28.9141 60.4453 29.1562 60.2344C29.3984 60.0234 29.5195 59.707 29.5195 59.2852V58.8906ZM33.5234 56.6406C34.0312 56.6406 34.4154 56.7656 34.6758 57.0156C34.9362 57.263 35.0664 57.6615 35.0664 58.2109V61H34.4258V58.2539C34.4258 57.8971 34.3438 57.6302 34.1797 57.4531C34.0182 57.276 33.7695 57.1875 33.4336 57.1875C32.9596 57.1875 32.6263 57.3216 32.4336 57.5898C32.2409 57.8581 32.1445 58.2474 32.1445 58.7578V61H31.4961V56.7188H32.0195L32.1172 57.3359H32.1523C32.2435 57.1849 32.3594 57.0586 32.5 56.957C32.6406 56.8529 32.7982 56.7747 32.9727 56.7227C33.1471 56.668 33.3307 56.6406 33.5234 56.6406ZM38.0039 56.6484C38.5143 56.6484 38.8932 56.763 39.1406 56.9922C39.388 57.2214 39.5117 57.5872 39.5117 58.0898V61H39.0391L38.9141 60.3672H38.8828C38.763 60.5234 38.638 60.6549 38.5078 60.7617C38.3776 60.8659 38.2266 60.9453 38.0547 61C37.8854 61.0521 37.6771 61.0781 37.4297 61.0781C37.1693 61.0781 36.9375 61.0326 36.7344 60.9414C36.5339 60.8503 36.375 60.7122 36.2578 60.5273C36.1432 60.3424 36.0859 60.1081 36.0859 59.8242C36.0859 59.3971 36.2552 59.069 36.5938 58.8398C36.9323 58.6107 37.4479 58.4857 38.1406 58.4648L38.8789 58.4336V58.1719C38.8789 57.8021 38.7995 57.543 38.6406 57.3945C38.4818 57.2461 38.2578 57.1719 37.9688 57.1719C37.7448 57.1719 37.5312 57.2044 37.3281 57.2695C37.125 57.3346 36.9323 57.4115 36.75 57.5L36.5508 57.0078C36.7435 56.9089 36.9648 56.8242 37.2148 56.7539C37.4648 56.6836 37.7279 56.6484 38.0039 56.6484ZM38.8711 58.8906L38.2188 58.918C37.6849 58.9388 37.3086 59.026 37.0898 59.1797C36.8711 59.3333 36.7617 59.5508 36.7617 59.832C36.7617 60.0768 36.8359 60.2578 36.9844 60.375C37.1328 60.4922 37.3294 60.5508 37.5742 60.5508C37.9544 60.5508 38.2656 60.4453 38.5078 60.2344C38.75 60.0234 38.8711 59.707 38.8711 59.2852V58.8906ZM43.6172 59.8281C43.6172 60.1016 43.5482 60.332 43.4102 60.5195C43.2747 60.7044 43.0794 60.8438 42.8242 60.9375C42.5716 61.0312 42.2695 61.0781 41.918 61.0781C41.6185 61.0781 41.3594 61.0547 41.1406 61.0078C40.9219 60.9609 40.7305 60.8945 40.5664 60.8086V60.2109C40.7409 60.2969 40.9492 60.375 41.1914 60.4453C41.4336 60.5156 41.681 60.5508 41.9336 60.5508C42.3034 60.5508 42.5716 60.4909 42.7383 60.3711C42.9049 60.2513 42.9883 60.0885 42.9883 59.8828C42.9883 59.7656 42.9544 59.6628 42.8867 59.5742C42.8216 59.4831 42.7109 59.3958 42.5547 59.3125C42.3984 59.2266 42.1823 59.1328 41.9062 59.0312C41.6328 58.9271 41.3958 58.8242 41.1953 58.7227C40.9974 58.6185 40.8438 58.4922 40.7344 58.3438C40.6276 58.1953 40.5742 58.0026 40.5742 57.7656C40.5742 57.4036 40.7201 57.1263 41.0117 56.9336C41.306 56.7383 41.6914 56.6406 42.168 56.6406C42.4258 56.6406 42.6667 56.6667 42.8906 56.7188C43.1172 56.7682 43.3281 56.8359 43.5234 56.9219L43.3047 57.4414C43.1276 57.3659 42.9388 57.3021 42.7383 57.25C42.5378 57.1979 42.3333 57.1719 42.125 57.1719C41.8255 57.1719 41.5951 57.2214 41.4336 57.3203C41.2747 57.4193 41.1953 57.5547 41.1953 57.7266C41.1953 57.8594 41.2318 57.9688 41.3047 58.0547C41.3802 58.1406 41.5 58.2214 41.6641 58.2969C41.8281 58.3724 42.0443 58.4609 42.3125 58.5625C42.5807 58.6615 42.8125 58.7643 43.0078 58.8711C43.2031 58.9753 43.3529 59.1029 43.457 59.2539C43.5638 59.4023 43.6172 59.5938 43.6172 59.8281ZM48.3398 56.6484C48.8503 56.6484 49.2292 56.763 49.4766 56.9922C49.724 57.2214 49.8477 57.5872 49.8477 58.0898V61H49.375L49.25 60.3672H49.2188C49.099 60.5234 48.974 60.6549 48.8438 60.7617C48.7135 60.8659 48.5625 60.9453 48.3906 61C48.2214 61.0521 48.013 61.0781 47.7656 61.0781C47.5052 61.0781 47.2734 61.0326 47.0703 60.9414C46.8698 60.8503 46.7109 60.7122 46.5938 60.5273C46.4792 60.3424 46.4219 60.1081 46.4219 59.8242C46.4219 59.3971 46.5911 59.069 46.9297 58.8398C47.2682 58.6107 47.7839 58.4857 48.4766 58.4648L49.2148 58.4336V58.1719C49.2148 57.8021 49.1354 57.543 48.9766 57.3945C48.8177 57.2461 48.5938 57.1719 48.3047 57.1719C48.0807 57.1719 47.8672 57.2044 47.6641 57.2695C47.4609 57.3346 47.2682 57.4115 47.0859 57.5L46.8867 57.0078C47.0794 56.9089 47.3008 56.8242 47.5508 56.7539C47.8008 56.6836 48.0638 56.6484 48.3398 56.6484ZM49.207 58.8906L48.5547 58.918C48.0208 58.9388 47.6445 59.026 47.4258 59.1797C47.207 59.3333 47.0977 59.5508 47.0977 59.832C47.0977 60.0768 47.1719 60.2578 47.3203 60.375C47.4688 60.4922 47.6654 60.5508 47.9102 60.5508C48.2904 60.5508 48.6016 60.4453 48.8438 60.2344C49.0859 60.0234 49.207 59.707 49.207 59.2852V58.8906ZM52.5664 60.5469C52.6732 60.5469 52.7826 60.5378 52.8945 60.5195C53.0065 60.5013 53.0977 60.4792 53.168 60.4531V60.957C53.0924 60.9909 52.987 61.0195 52.8516 61.043C52.7188 61.0664 52.5885 61.0781 52.4609 61.0781C52.2344 61.0781 52.0286 61.0391 51.8438 60.9609C51.6589 60.8802 51.5104 60.7448 51.3984 60.5547C51.2891 60.3646 51.2344 60.1016 51.2344 59.7656V57.2266H50.625V56.9102L51.2383 56.6562L51.4961 55.7266H51.8867V56.7188H53.1406V57.2266H51.8867V59.7461C51.8867 60.0143 51.9479 60.2148 52.0703 60.3477C52.1953 60.4805 52.3607 60.5469 52.5664 60.5469ZM55.9805 56.6406C56.0664 56.6406 56.1562 56.6458 56.25 56.6562C56.3438 56.6641 56.4271 56.6758 56.5 56.6914L56.418 57.293C56.3477 57.2747 56.2695 57.2604 56.1836 57.25C56.0977 57.2396 56.0169 57.2344 55.9414 57.2344C55.7695 57.2344 55.6068 57.2695 55.4531 57.3398C55.3021 57.4076 55.1693 57.5065 55.0547 57.6367C54.9401 57.7643 54.8503 57.9193 54.7852 58.1016C54.7201 58.2812 54.6875 58.4818 54.6875 58.7031V61H54.0352V56.7188H54.5742L54.6445 57.5078H54.6719C54.7604 57.349 54.8672 57.2044 54.9922 57.0742C55.1172 56.9414 55.2617 56.8359 55.4258 56.7578C55.5924 56.6797 55.7773 56.6406 55.9805 56.6406ZM58.9102 56.6484C59.4206 56.6484 59.7995 56.763 60.0469 56.9922C60.2943 57.2214 60.418 57.5872 60.418 58.0898V61H59.9453L59.8203 60.3672H59.7891C59.6693 60.5234 59.5443 60.6549 59.4141 60.7617C59.2839 60.8659 59.1328 60.9453 58.9609 61C58.7917 61.0521 58.5833 61.0781 58.3359 61.0781C58.0755 61.0781 57.8438 61.0326 57.6406 60.9414C57.4401 60.8503 57.2812 60.7122 57.1641 60.5273C57.0495 60.3424 56.9922 60.1081 56.9922 59.8242C56.9922 59.3971 57.1615 59.069 57.5 58.8398C57.8385 58.6107 58.3542 58.4857 59.0469 58.4648L59.7852 58.4336V58.1719C59.7852 57.8021 59.7057 57.543 59.5469 57.3945C59.388 57.2461 59.1641 57.1719 58.875 57.1719C58.651 57.1719 58.4375 57.2044 58.2344 57.2695C58.0312 57.3346 57.8385 57.4115 57.6562 57.5L57.457 57.0078C57.6497 56.9089 57.8711 56.8242 58.1211 56.7539C58.3711 56.6836 58.6341 56.6484 58.9102 56.6484ZM59.7773 58.8906L59.125 58.918C58.5911 58.9388 58.2148 59.026 57.9961 59.1797C57.7773 59.3333 57.668 59.5508 57.668 59.832C57.668 60.0768 57.7422 60.2578 57.8906 60.375C58.0391 60.4922 58.2357 60.5508 58.4805 60.5508C58.8607 60.5508 59.1719 60.4453 59.4141 60.2344C59.6562 60.0234 59.7773 59.707 59.7773 59.2852V58.8906ZM59.9805 54.8711V54.9492C59.9284 55.0247 59.8568 55.1159 59.7656 55.2227C59.6771 55.3268 59.5781 55.4375 59.4688 55.5547C59.3594 55.6693 59.2487 55.7786 59.1367 55.8828C59.0273 55.987 58.9258 56.0768 58.832 56.1523H58.3984V56.0586C58.4818 55.9596 58.5729 55.8411 58.6719 55.7031C58.7708 55.5625 58.8672 55.4193 58.9609 55.2734C59.0547 55.125 59.1328 54.9909 59.1953 54.8711H59.9805ZM64.5234 59.8281C64.5234 60.1016 64.4544 60.332 64.3164 60.5195C64.181 60.7044 63.9857 60.8438 63.7305 60.9375C63.4779 61.0312 63.1758 61.0781 62.8242 61.0781C62.5247 61.0781 62.2656 61.0547 62.0469 61.0078C61.8281 60.9609 61.6367 60.8945 61.4727 60.8086V60.2109C61.6471 60.2969 61.8555 60.375 62.0977 60.4453C62.3398 60.5156 62.5872 60.5508 62.8398 60.5508C63.2096 60.5508 63.4779 60.4909 63.6445 60.3711C63.8112 60.2513 63.8945 60.0885 63.8945 59.8828C63.8945 59.7656 63.8607 59.6628 63.793 59.5742C63.7279 59.4831 63.6172 59.3958 63.4609 59.3125C63.3047 59.2266 63.0885 59.1328 62.8125 59.0312C62.5391 58.9271 62.3021 58.8242 62.1016 58.7227C61.9036 58.6185 61.75 58.4922 61.6406 58.3438C61.5339 58.1953 61.4805 58.0026 61.4805 57.7656C61.4805 57.4036 61.6263 57.1263 61.918 56.9336C62.2122 56.7383 62.5977 56.6406 63.0742 56.6406C63.332 56.6406 63.5729 56.6667 63.7969 56.7188C64.0234 56.7682 64.2344 56.8359 64.4297 56.9219L64.2109 57.4414C64.0339 57.3659 63.8451 57.3021 63.6445 57.25C63.444 57.1979 63.2396 57.1719 63.0312 57.1719C62.7318 57.1719 62.5013 57.2214 62.3398 57.3203C62.181 57.4193 62.1016 57.5547 62.1016 57.7266C62.1016 57.8594 62.138 57.9688 62.2109 58.0547C62.2865 58.1406 62.4062 58.2214 62.5703 58.2969C62.7344 58.3724 62.9505 58.4609 63.2188 58.5625C63.487 58.6615 63.7188 58.7643 63.9141 58.8711C64.1094 58.9753 64.2591 59.1029 64.3633 59.2539C64.4701 59.4023 64.5234 59.5938 64.5234 59.8281Z" fill="#666666"/>
<path d="M164.852 57.1367C164.852 57.5768 164.796 57.9779 164.684 58.3398C164.572 58.6992 164.405 59.0091 164.184 59.2695C163.965 59.5273 163.693 59.7266 163.367 59.8672C163.042 60.0078 162.664 60.0781 162.234 60.0781C161.792 60.0781 161.405 60.0078 161.074 59.8672C160.746 59.7266 160.473 59.526 160.254 59.2656C160.038 59.0052 159.875 58.694 159.766 58.332C159.659 57.9701 159.605 57.569 159.605 57.1289C159.605 56.5456 159.702 56.0339 159.895 55.5938C160.087 55.1536 160.379 54.8112 160.77 54.5664C161.163 54.3216 161.655 54.1992 162.246 54.1992C162.811 54.1992 163.286 54.3203 163.672 54.5625C164.06 54.8047 164.353 55.1458 164.551 55.5859C164.751 56.0234 164.852 56.5404 164.852 57.1367ZM160.305 57.1367C160.305 57.6211 160.374 58.0404 160.512 58.3945C160.65 58.7487 160.861 59.0221 161.145 59.2148C161.431 59.4076 161.794 59.5039 162.234 59.5039C162.677 59.5039 163.039 59.4076 163.32 59.2148C163.604 59.0221 163.814 58.7487 163.949 58.3945C164.085 58.0404 164.152 57.6211 164.152 57.1367C164.152 56.3997 163.997 55.8242 163.688 55.4102C163.38 54.9935 162.9 54.7852 162.246 54.7852C161.803 54.7852 161.439 54.8802 161.152 55.0703C160.866 55.2604 160.652 55.5312 160.512 55.8828C160.374 56.2318 160.305 56.6497 160.305 57.1367ZM168.055 55.6406C168.562 55.6406 168.947 55.7656 169.207 56.0156C169.467 56.263 169.598 56.6615 169.598 57.2109V60H168.957V57.2539C168.957 56.8971 168.875 56.6302 168.711 56.4531C168.549 56.276 168.301 56.1875 167.965 56.1875C167.491 56.1875 167.158 56.3216 166.965 56.5898C166.772 56.8581 166.676 57.2474 166.676 57.7578V60H166.027V55.7188H166.551L166.648 56.3359H166.684C166.775 56.1849 166.891 56.0586 167.031 55.957C167.172 55.8529 167.329 55.7747 167.504 55.7227C167.678 55.668 167.862 55.6406 168.055 55.6406ZM172.316 59.5469C172.423 59.5469 172.533 59.5378 172.645 59.5195C172.757 59.5013 172.848 59.4792 172.918 59.4531V59.957C172.842 59.9909 172.737 60.0195 172.602 60.043C172.469 60.0664 172.339 60.0781 172.211 60.0781C171.984 60.0781 171.779 60.0391 171.594 59.9609C171.409 59.8802 171.26 59.7448 171.148 59.5547C171.039 59.3646 170.984 59.1016 170.984 58.7656V56.2266H170.375V55.9102L170.988 55.6562L171.246 54.7266H171.637V55.7188H172.891V56.2266H171.637V58.7461C171.637 59.0143 171.698 59.2148 171.82 59.3477C171.945 59.4805 172.111 59.5469 172.316 59.5469ZM175.434 55.6406C175.798 55.6406 176.111 55.7214 176.371 55.8828C176.632 56.0443 176.831 56.2708 176.969 56.5625C177.107 56.8516 177.176 57.1901 177.176 57.5781V57.9805H174.219C174.227 58.4831 174.352 58.8659 174.594 59.1289C174.836 59.3919 175.177 59.5234 175.617 59.5234C175.888 59.5234 176.128 59.4987 176.336 59.4492C176.544 59.3997 176.76 59.3268 176.984 59.2305V59.8008C176.768 59.8971 176.553 59.9674 176.34 60.0117C176.129 60.056 175.879 60.0781 175.59 60.0781C175.178 60.0781 174.819 59.9948 174.512 59.8281C174.207 59.6589 173.97 59.4115 173.801 59.0859C173.632 58.7604 173.547 58.362 173.547 57.8906C173.547 57.4297 173.624 57.0312 173.777 56.6953C173.934 56.3568 174.152 56.0964 174.434 55.9141C174.717 55.7318 175.051 55.6406 175.434 55.6406ZM175.426 56.1719C175.079 56.1719 174.803 56.2852 174.598 56.5117C174.392 56.7383 174.27 57.0547 174.23 57.4609H176.496C176.493 57.2057 176.453 56.9818 176.375 56.7891C176.299 56.5938 176.184 56.4427 176.027 56.3359C175.871 56.2266 175.671 56.1719 175.426 56.1719ZM182.926 55.6406C183.397 55.6406 183.753 55.7643 183.992 56.0117C184.232 56.2565 184.352 56.651 184.352 57.1953V60H183.711V57.2266C183.711 56.8802 183.635 56.6211 183.484 56.4492C183.336 56.2747 183.115 56.1875 182.82 56.1875C182.406 56.1875 182.105 56.3073 181.918 56.5469C181.73 56.7865 181.637 57.1393 181.637 57.6055V60H180.992V57.2266C180.992 56.9948 180.958 56.8021 180.891 56.6484C180.826 56.4948 180.727 56.3802 180.594 56.3047C180.464 56.2266 180.298 56.1875 180.098 56.1875C179.814 56.1875 179.586 56.2461 179.414 56.3633C179.242 56.4805 179.117 56.6549 179.039 56.8867C178.964 57.1159 178.926 57.3984 178.926 57.7344V60H178.277V55.7188H178.801L178.898 56.3242H178.934C179.02 56.1758 179.128 56.0508 179.258 55.9492C179.388 55.8477 179.534 55.7708 179.695 55.7188C179.857 55.6667 180.029 55.6406 180.211 55.6406C180.536 55.6406 180.809 55.7018 181.027 55.8242C181.249 55.944 181.409 56.1276 181.508 56.375H181.543C181.684 56.1276 181.876 55.944 182.121 55.8242C182.366 55.7018 182.634 55.6406 182.926 55.6406Z" fill="#666666"/>
<path d="M191.943 14.248H194.287V15.291H191.943V17.6582H190.9V15.291H188.562V14.248H190.9V11.8574H191.943V14.248ZM201.207 19H195.406V17.9629L197.627 15.7129C198.057 15.2754 198.41 14.8984 198.688 14.582C198.965 14.2617 199.17 13.959 199.303 13.6738C199.439 13.3887 199.508 13.0781 199.508 12.7422C199.508 12.3281 199.389 12.0156 199.15 11.8047C198.912 11.5898 198.598 11.4824 198.207 11.4824C197.836 11.4824 197.492 11.5566 197.176 11.7051C196.863 11.8496 196.539 12.0566 196.203 12.3262L195.447 11.418C195.686 11.2148 195.939 11.0293 196.209 10.8613C196.482 10.6934 196.787 10.5605 197.123 10.4629C197.459 10.3613 197.842 10.3105 198.271 10.3105C198.814 10.3105 199.283 10.4082 199.678 10.6035C200.072 10.7949 200.375 11.0625 200.586 11.4062C200.801 11.75 200.908 12.1504 200.908 12.6074C200.908 13.0684 200.816 13.4941 200.633 13.8848C200.449 14.2754 200.188 14.6621 199.848 15.0449C199.508 15.4238 199.104 15.8359 198.635 16.2812L197.152 17.7285V17.793H201.207V19ZM204.107 17.6055L204.189 17.7402C204.119 18.0215 204.029 18.3242 203.92 18.6484C203.811 18.9727 203.691 19.2969 203.562 19.6211C203.434 19.9492 203.303 20.2578 203.17 20.5469H202.162C202.244 20.2305 202.322 19.8984 202.396 19.5508C202.475 19.207 202.545 18.8672 202.607 18.5312C202.674 18.1914 202.727 17.8828 202.766 17.6055H204.107ZM208.455 13.6445C209.006 13.6445 209.49 13.7441 209.908 13.9434C210.33 14.1387 210.658 14.4277 210.893 14.8105C211.127 15.1895 211.244 15.6543 211.244 16.2051C211.244 16.8066 211.117 17.3262 210.863 17.7637C210.609 18.1973 210.236 18.5312 209.744 18.7656C209.252 19 208.652 19.1172 207.945 19.1172C207.496 19.1172 207.076 19.0781 206.686 19C206.299 18.9219 205.965 18.8047 205.684 18.6484V17.4062C205.977 17.5703 206.328 17.7051 206.738 17.8105C207.148 17.9121 207.541 17.9629 207.916 17.9629C208.314 17.9629 208.656 17.9043 208.941 17.7871C209.227 17.6699 209.445 17.4902 209.598 17.248C209.754 17.0059 209.832 16.6992 209.832 16.3281C209.832 15.8359 209.674 15.457 209.357 15.1914C209.045 14.9219 208.555 14.7871 207.887 14.7871C207.652 14.7871 207.402 14.8086 207.137 14.8516C206.875 14.8906 206.656 14.9336 206.48 14.9805L205.877 14.623L206.199 10.4336H210.652V11.6465H207.412L207.225 13.7793C207.365 13.748 207.533 13.7188 207.729 13.6914C207.924 13.6602 208.166 13.6445 208.455 13.6445ZM217.35 9.88281V14.2891C217.35 14.4883 217.342 14.707 217.326 14.9453C217.311 15.1797 217.295 15.4004 217.279 15.6074H217.309C217.41 15.4707 217.531 15.3105 217.672 15.127C217.816 14.9434 217.953 14.7832 218.082 14.6465L220.062 12.5137H221.645L219.049 15.3027L221.814 19H220.197L218.123 16.1523L217.35 16.8145V19H215.973V9.88281H217.35ZM224.703 21.8828C223.824 21.8828 223.15 21.7246 222.682 21.4082C222.213 21.0918 221.979 20.6484 221.979 20.0781C221.979 19.6797 222.104 19.3418 222.354 19.0645C222.604 18.791 222.961 18.6016 223.426 18.4961C223.25 18.418 223.098 18.2969 222.969 18.1328C222.844 17.9648 222.781 17.7793 222.781 17.5762C222.781 17.334 222.85 17.127 222.986 16.9551C223.123 16.7832 223.328 16.6172 223.602 16.457C223.262 16.3125 222.988 16.0781 222.781 15.7539C222.578 15.4258 222.477 15.041 222.477 14.5996C222.477 14.1309 222.576 13.7324 222.775 13.4043C222.975 13.0723 223.266 12.8203 223.648 12.6484C224.031 12.4727 224.494 12.3848 225.037 12.3848C225.154 12.3848 225.281 12.3926 225.418 12.4082C225.559 12.4199 225.688 12.4355 225.805 12.4551C225.926 12.4707 226.018 12.4883 226.08 12.5078H228.324V13.2754L227.223 13.4805C227.328 13.6289 227.412 13.7988 227.475 13.9902C227.537 14.1777 227.568 14.3828 227.568 14.6055C227.568 15.2773 227.336 15.8066 226.871 16.1934C226.41 16.5762 225.773 16.7676 224.961 16.7676C224.766 16.7598 224.576 16.7441 224.393 16.7207C224.252 16.8066 224.145 16.9023 224.07 17.0078C223.996 17.1094 223.959 17.2246 223.959 17.3535C223.959 17.459 223.996 17.5449 224.07 17.6113C224.145 17.6738 224.254 17.7207 224.398 17.752C224.547 17.7832 224.727 17.7988 224.938 17.7988H226.057C226.768 17.7988 227.311 17.9492 227.686 18.25C228.061 18.5508 228.248 18.9922 228.248 19.5742C228.248 20.3125 227.943 20.8809 227.334 21.2793C226.725 21.6816 225.848 21.8828 224.703 21.8828ZM224.756 20.916C225.236 20.916 225.641 20.8691 225.969 20.7754C226.297 20.6816 226.545 20.5469 226.713 20.3711C226.881 20.1992 226.965 19.9941 226.965 19.7559C226.965 19.5449 226.912 19.3828 226.807 19.2695C226.701 19.1562 226.543 19.0781 226.332 19.0352C226.121 18.9922 225.859 18.9707 225.547 18.9707H224.527C224.273 18.9707 224.049 19.0098 223.854 19.0879C223.658 19.1699 223.506 19.2871 223.396 19.4395C223.291 19.5918 223.238 19.7754 223.238 19.9902C223.238 20.2871 223.369 20.5156 223.631 20.6758C223.896 20.8359 224.271 20.916 224.756 20.916ZM225.025 15.8652C225.428 15.8652 225.727 15.7559 225.922 15.5371C226.117 15.3145 226.215 15.002 226.215 14.5996C226.215 14.1621 226.113 13.834 225.91 13.6152C225.711 13.3965 225.414 13.2871 225.02 13.2871C224.633 13.2871 224.338 13.3984 224.135 13.6211C223.936 13.8438 223.836 14.1738 223.836 14.6113C223.836 15.0059 223.936 15.3145 224.135 15.5371C224.338 15.7559 224.635 15.8652 225.025 15.8652Z" fill="#198754"/>
<defs>
<linearGradient id="paint0_linear_347_166" x1="95" y1="13" x2="98.1448" y2="50.7379" gradientUnits="userSpaceOnUse">
<stop stop-color="#198754" stop-opacity="0.4"/>
<stop offset="0.0001" stop-color="#198754" stop-opacity="0.2"/>
<stop offset="1" stop-color="#198754" stop-opacity="0"/>
</linearGradient>
</defs>
</svg>
